<svg height="512pt" viewBox="0 0 512 512" width="512pt" xmlns="http://www.w3.org/2000/svg"><path d="m512 0h-512v512h512zm-482 30h332v30h-332zm452 452h-452v-392h452zm0-422h-90v-30h90zm0 0"/><path d="m60 151h30v30h-30zm0 0"/><path d="m242 211h30v30h-30zm0 0"/><path d="m60 211h30v30h-30zm0 0"/><path d="m60 271h30v30h-30zm0 0"/><path d="m60 331h30v30h-30zm0 0"/><path d="m362 271h30v30h-30zm0 0"/><path d="m362 151h90v30h-90zm0 0"/><path d="m422 271h30v30h-30zm0 0"/><path d="m332 391h30v30h-30zm0 0"/><path d="m272 391h30v30h-30zm0 0"/><path d="m212 391h30v30h-30zm0 0"/><path d="m392 391h60v30h-60zm0 0"/><path d="m120 211h92v30h-92zm0 0"/><path d="m302 211h150v30h-150zm0 0"/><path d="m120 271h212v30h-212zm0 0"/><path d="m120 331h332v30h-332zm0 0"/><path d="m120 151h212v30h-212zm0 0"/></svg>