<svg height="512pt" viewBox="0 0 512 512" width="512pt" xmlns="http://www.w3.org/2000/svg"><path d="m120 271h-120v15c0 57.898438 47.101562 105 105 105h15v21.214844l4.394531 4.390625c10.78125 10.785156 10.78125 29.003906 0 39.789062l-25.609375 25.605469h-38.785156v30h422v-30h-38.785156l-33.984375-33.984375c-22.503907-22.503906-22.503907-60.527344 0-83.03125 15.957031-15.957031 7.550781-12.996094 43.367187-22.011719 37.953125-9.554687 49.839844-12.949218 59.402344-15.457031v-86.515625h-392zm-15 90c-36.21875 0-66.523438-25.808594-73.492188-60h88.492188v60zm295.785156 121h-259.570312l4.390625-4.394531c10.847656-10.84375 16.820312-25.445313 16.820312-41.105469 0-5.324219-.703125-10.523438-2.039062-15.5h203.027343c2.941407 18.269531 11.40625 35.035156 24.601563 48.230469zm81.214844-211v33.460938c-15.5 4.078124-27.503906 7.097656-36.726562 9.421874-42.5625 10.710938-37.734376 10.359376-57.257813 29.886719-12.953125 12.953125-21.34375 29.347657-24.429687 47.230469h-213.585938v-120zm0 0"/><path d="m270 0h-84.339844l-30 61h-65.660156v90h60v60h120v-60h242v-90h-242zm-150 121v-30h30v30zm120 60h-60v-101.511719l24.339844-49.488281h35.660156zm242-90v30h-212v-30zm0 0"/><path d="m0 121h60v30h-60zm0 0"/><path d="m81.710938 209.421875-59.996094 30-13.417969-26.832031 60-30zm0 0"/></svg>