<svg id="Capa_1" enable-background="new 0 0 512 512" height="512" viewBox="0 0 512 512" width="512" xmlns="http://www.w3.org/2000/svg"><path d="m452 256c0-52.667-21.183-102.396-60-139.701v-116.299h-90v66.635c-15.221-3.716-30.974-5.635-47-5.635-15.484 0-30.549 1.824-45 5.251v-66.251h-90v115.424c-36.959 35.506-60 85.399-60 140.576v45h-60v181h60v30h392v-30h60v-181h-60zm-120-226h30v62.512c-9.561-6.186-19.593-11.506-30-15.92zm-182 0h30v46.008c-10.493 4.388-20.527 9.661-30 15.738zm-120 422v-121h30v121zm392 30h-332v-226c0-90.981 74.019-165 165-165 92.084 0 167 74.019 167 165zm60-151v121h-30v-121z"/><path d="m255 121c-61.57 0-115.327 41.635-130.727 101.248l29.046 7.504c11.979-46.368 53.791-78.752 101.681-78.752 48.288 0 91.892 33.12 103.68 78.752l29.046-7.504c-15.199-58.839-70.67-101.248-132.726-101.248z"/><path d="m120 452h272v-181h-272zm30-30v-61h152v30h30v-30h30v61zm212-121v30h-212v-30z"/></svg>