<svg id="Capa_1" enable-background="new 0 0 512 512" height="512" viewBox="0 0 512 512" width="512" xmlns="http://www.w3.org/2000/svg"><path d="m512 373.994v-275.334c0-5.304-2.107-10.392-5.857-14.142l-78.667-78.666c-7.011-7.013-18.201-7.82-26.143-1.858l-145.333 109c-33.456-25.087-144.554-108.431-145.739-109.276-8.092-5.778-18.983-4.619-25.739 2.136l-78.664 78.664c-3.751 3.751-5.858 8.838-5.858 14.142v275.333c0 6.255 2.964 12.221 8 16l157.333 118c6.061 4.546 14.17 5.277 20.944 1.889l69.723-34.861 69.723 34.861c6.759 3.379 14.87 2.667 20.944-1.889l157.333-118c5.122-3.845 8-9.844 8-15.999zm-40-48.283-38.667-38.667v-218.766l38.667 38.667zm-353.333-40.384v-225.333l117.333 88v225.333zm157.333-137.333 117.333-88v225.333l-117.333 88zm-197.333-79.716v218.765l-38.667 38.667v-218.765zm100.778 400.299-128.997-96.747 50.095-50.095c151.734 112.735 142.83 109.582 151.864 111.255-5.024.917-1.322.079-72.962 35.587zm153.111 0c-71.76-35.567-67.942-34.671-72.962-35.588 9.096-1.646 3.019-.592 151.863-111.255l50.095 50.095z"/></svg>