<svg height="512pt" viewBox="0 -49 512 511" width="512pt" xmlns="http://www.w3.org/2000/svg"><path d="m492 .5h-472c-11.046875 0-20 8.953125-20 20v372c0 11.046875 8.953125 20 20 20h472c11.046875 0 20-8.953125 20-20v-372c0-11.046875-8.953125-20-20-20zm-369.523438 372h-82.476562v-245.699219h82.476562zm0-285.699219h-82.476562v-46.300781h82.476562zm349.523438 285.699219h-309.523438v-332h309.523438zm-221.351562-63.742188h133.179687c11.046875 0 20-8.953124 20-20v-103.800781c0-5.625-2.367187-10.988281-6.523437-14.777343l-66.589844-60.714844c-7.636719-6.960938-19.316406-6.960938-26.949219 0l-66.589844 60.714844c-4.15625 3.789062-6.527343 9.152343-6.527343 14.777343v103.800781c0 11.046876 8.957031 20 20 20zm20-114.972656 46.589843-42.476562 46.589844 42.476562v74.972656h-93.179687zm0 0"/></svg>