<?xml version="1.0" encoding="iso-8859-1"?>
<!-- Generator: Adobe Illustrator 16.0.0, SVG Export Plug-In . SVG Version: 6.00 Build 0)  -->
<!DOCTYPE svg PUBLIC "-//W3C//DTD SVG 1.1//EN" "http://www.w3.org/Graphics/SVG/1.1/DTD/svg11.dtd">
<svg version="1.1" id="Capa_1" xmlns="http://www.w3.org/2000/svg" xmlns:xlink="http://www.w3.org/1999/xlink" x="0px" y="0px"
	 width="50.435px" height="50.434px" viewBox="0 0 50.435 50.434" style="enable-background:new 0 0 50.435 50.434;"
	 xml:space="preserve">
<g>
	<g>
		<path d="M19.269,48.583c0.773-0.267,0.65-0.521,0.26-0.626c0.231-0.131,0.393-0.29,0.352-0.458
			c-1.071-4.474-4.736-9.224-8.374-11.938c-0.346-0.26-1.814-0.037-1.862,0.499c-0.059,0.649-0.016,1.299,0.019,1.947
			c0.055,1.075-0.624,2.03-1.34,2.159c-0.622,0.111-1.244,0.226-1.298,0.222c-1.264-0.086-2.312,0.768-1.664,2.089
			C7.846,47.544,13.962,50.414,19.269,48.583z M10.314,40.86c0.363-0.142,0.628-0.341,0.826-0.578
			c-0.038,0.189-0.089,0.357-0.171,0.468c-0.504,0.756-1.188,0.439-1.987,0.384C9.467,41.085,9.933,41.007,10.314,40.86z
			 M9.209,42.714c0.916-0.946,1.826-1.889,2.729-2.819c0.312-0.321,0.532-0.683,0.661-1.026c0.473,0.496,0.925,1.02,1.36,1.561
			c-0.005,0.034,0.01,0.052,0.042,0.053c1.841,2.295,3.324,4.938,3.946,7.536c0.013,0.054,0.055,0.09,0.101,0.123
			c-0.835,0.211-1.661,0.234-2.468,0.115c0.169-0.129,0.338-0.268,0.499-0.419c0.758-0.712,1.093-1.481,0.764-1.745
			c-0.329-0.262-1.189,0.163-1.946,0.969c-0.053,0.055-0.104,0.108-0.155,0.164c-0.227,0.238-0.407,0.475-0.549,0.691
			c-0.901-0.313-1.762-0.786-2.56-1.344c0.213-0.203,0.453-0.438,0.709-0.691c0.25-0.248,0.5-0.496,0.749-0.744
			c0.784-0.777,1.396-1.438,1.365-1.477s-0.688,0.566-1.465,1.35c-0.259,0.261-0.518,0.521-0.775,0.779
			c-0.256,0.257-0.489,0.497-0.689,0.709c-0.388-0.275-0.76-0.569-1.112-0.877c0.045-0.038,0.092-0.066,0.136-0.11
			c0.269-0.268,0.536-0.535,0.806-0.804c0.37-0.366,0.741-0.73,1.112-1.098c0.614-0.605,0.976-1.284,0.822-1.525
			c-0.153-0.24-0.243-0.53-0.242-0.625c0.001-0.096-0.621,0.471-1.391,1.264c-0.436,0.447-0.869,0.896-1.305,1.345
			c-0.279,0.288-0.517,0.582-0.695,0.85c-0.047-0.046-0.095-0.091-0.142-0.137c-0.323-0.327-0.821-0.813-1.283-1.354
			C8.547,43.284,8.888,43.045,9.209,42.714z M7.053,41.439c-0.038-0.101-0.074-0.188-0.106-0.26
			c0.265,0.027,0.666,0.033,1.171,0.015c0.06-0.002,0.119-0.007,0.18-0.01c-0.11,0.023-0.22,0.048-0.332,0.096
			C7.514,41.473,7.235,41.455,7.053,41.439z"/>
		<path d="M35.487,50.083c1.271-0.309,2.505-0.794,3.66-1.428c0.007,0.031,0.07,0.015,0.197-0.064
			c0.088-0.055,0.165-0.114,0.234-0.175c2.409-1.427,4.431-3.517,5.639-6.021c0.155-0.322-0.039-0.685-0.372-0.784
			c-1.509-0.456-4.218-0.252-5.342-1.366c-1.263-1.252-2.031-3.2-2.817-4.767c-0.263-0.523-1.185-0.272-1.526-0.025
			c-4.531,3.25-3.424,8.766-3.165,13.611c0.021,0.38,0.298,0.578,0.636,0.638c-0.119,0.394,0.087,0.787,0.793,0.726
			c0.676-0.059,1.347-0.173,2.009-0.331c-0.003,0.01-0.007,0.021-0.001,0.019C35.44,50.114,35.46,50.103,35.487,50.083z
			 M35.453,37.18c0.002,0.009,0.005,0.017,0.007,0.023c-0.02,0.017-0.039,0.032-0.062,0.053
			C35.416,37.232,35.436,37.205,35.453,37.18z M34.982,37.824c0.072-0.052,0.18-0.145,0.322-0.29
			c0.079-0.08,0.139-0.146,0.188-0.205c0.068,0.241,0.175,0.511,0.324,0.8c0.578,1.116,1.232,2.2,2.08,3.107
			c-0.247,0.152-0.511,0.358-0.77,0.62c-0.825,0.829-1.652,1.659-2.48,2.495c-0.383,0.385-0.714,0.907-0.945,1.447
			C33.469,42.971,33.4,40.022,34.982,37.824z M33.954,48.923c-0.015-0.266-0.033-0.537-0.055-0.81
			c0.263,0.006,0.597-0.172,0.952-0.554c1.096-1.172,2.187-2.34,3.274-3.505c0.697-0.745,1.252-1.522,1.344-1.85
			c0.708,0.216,1.52,0.315,2.297,0.405c0.629,0.072,1.15,0.108,1.469,0.09c-0.217,0.233-0.522,0.656-0.892,1.17
			c-1.118,1.555-2.628,2.844-4.328,3.749c0.073-0.073,0.147-0.147,0.221-0.222c0.776-0.785,1.399-1.509,1.392-1.614
			c-0.008-0.107-0.631,0.456-1.391,1.257c-0.293,0.31-0.581,0.612-0.871,0.918C36.281,48.457,35.129,48.781,33.954,48.923z"/>
		<path d="M23.351,7.053l-0.766-0.471c-1.062,0.53-1.238,2.829,0.296,2.771C23.942,9.294,24.177,7.584,23.351,7.053z"/>
		<path d="M27.949,8.764c1.062-0.059,1.296-1.768,0.473-2.299l-0.768-0.472C26.592,6.524,26.416,8.823,27.949,8.764z"/>
		<path d="M30.656,47.841c-0.304-1.821-0.275-3.798-0.29-5.643c-0.002-0.229-0.562-0.236-1.078-0.104
			c-1.511,0.351-3.45-0.438-4.896-0.874c-1.564-0.473-3.11-0.954-4.571-1.704c-0.301-0.153-2.175,0.14-1.871,0.604
			c0.945,1.456,3.579,5.107,2.65,6.972c-0.064,0.128,0.071,0.224,0.173,0.254c2.251,0.69,4.534,1.058,6.863,1.157
			c0.188,0.086,0.428,0.146,0.729,0.164c1.029,0.06,1.856-0.021,1.845-0.087c-0.007-0.038-0.014-0.077-0.015-0.119
			c-0.002-0.041-0.005-0.083-0.009-0.124C30.469,48.226,30.693,48.063,30.656,47.841z M21.041,41.596
			c1.046,0.416,2.143,0.776,3.249,1.037c-0.289,0.221-0.694,0.561-1.143,0.972c-0.365,0.334-0.664,0.718-0.864,1.076
			C21.972,43.606,21.557,42.591,21.041,41.596z M27.465,47.573c-0.014,0.014-0.021,0.027-0.033,0.041
			c-2.063-0.097-4.532-0.385-4.739-1.214c0.24-0.215,0.565-0.524,0.936-0.894c0.414-0.411,0.834-0.832,1.261-1.26
			c0.53-0.53,0.833-1.031,0.852-1.336c0.919,0.13,1.826,0.168,2.698,0.079c0.007,1.106,0.005,2.252,0.072,3.381
			c0.014,0.208,0.043,0.397,0.08,0.574C28.203,47.049,27.785,47.262,27.465,47.573z"/>
		<path d="M10.408,33.632c-0.103,0.325,0.375,0.473,0.601,0.468c2.205-0.051,3.271,1.293,4.608,2.627
			c0.464,0.462,1.913,0.095,1.859-0.646c-0.229-3.218,1.582-5.93,3.042-8.64c0.261-0.483,0.509-1.391,0.746-2.365
			c0.073-0.157,0.133-0.306,0.16-0.432c0.025-0.112,0.023-0.194,0.007-0.263c0.374-1.586,0.726-3.146,1.058-3.243
			c0.246-0.072,0.562-0.261,0.72-0.47c0.249-0.033,0.535-0.089,0.854-0.175c0.271-0.073,0.54-0.146,0.812-0.218
			c-0.049,0.123,0.058,0.173,0.309,0.106c0.246-0.067,0.512-0.214,0.691-0.374c0.742-0.2,1.484-0.399,2.226-0.599
			c0.513-0.137,0.935-0.305,1.219-0.468c0.091,0.023,0.184,0.036,0.279,0.039c-0.004,0.305,0.116,0.831,0.331,1.464
			c1.524,4.484,1.886,8.936,1.96,13.777c0.014,0.81,1.271,0.406,1.693,0.108c-0.113,0.123-0.183,0.21-0.183,0.234
			c0.001,0.077,0.211-0.057,0.483-0.281c0.161-0.134,0.33-0.265,0.508-0.393c0.162-0.115,0.378-0.23,0.616-0.338
			c2.679-0.649,3.873,4.284,5.495,5.228c0.41,0.238,1.703,0.018,1.732-0.599c0.229-4.852-0.57-9.553-2.237-14.114
			c-1.625-3.065-4.541-5.435-5.157-8.953c-0.666-3.806,0.407-7.846-0.373-11.708c-0.943-4.68-8.855-3.461-11.919-2.558
			c-5.11,1.508-5.465,6.046-4.562,10.55c0.95,4.756,1.371,7.593-1.847,11.646C13.63,26.206,11.616,29.781,10.408,33.632z
			 M15.672,34.292c-0.532-0.451-1.102-0.84-1.764-1.123c0.184-0.162,0.37-0.338,0.551-0.523c0.916-0.945,1.829-1.885,2.742-2.819
			C16.523,31.275,15.933,32.74,15.672,34.292z M25.427,16.785c-0.618-1.032-1.094-2.153-1.578-3.26
			c-0.021-0.051-0.199-0.613-0.39-0.822c0.08-0.016,0.169-0.035,0.264-0.06c0.171-0.046,0.577-0.163,1.079-0.288
			c0.027,0.099,0.162,0.131,0.407,0.072c0.233-0.056,0.429-0.164,0.569-0.293c0.11-0.023,0.224-0.044,0.336-0.063
			c0.613-0.106,1.11-0.192,1.381-0.272c-0.156,0.271-0.364,0.843-0.661,1.52c-0.29,0.661-0.628,1.309-0.857,1.98
			C25.782,15.793,25.601,16.288,25.427,16.785z M40.285,35.101c-0.034,0.06-0.059,0.119-0.086,0.182
			c-0.66-1.535-1.229-3.118-3.004-3.322c0.059-0.057,0.122-0.108,0.179-0.167c0.283-0.29,0.567-0.581,0.851-0.871
			c0.567-0.58,1.051-1.162,1.265-1.509C39.909,31.284,40.182,33.178,40.285,35.101z M39.427,29.135
			c-0.253,0.111-0.748,0.479-1.318,0.998c-0.683,0.619-1.347,1.224-1.999,1.817c-0.867,0.095-1.645,0.386-2.374,0.802
			c0.035-0.231,0.052-0.486,0.043-0.756c-0.028-0.825-0.075-1.64-0.131-2.451c0.267-0.231,0.65-0.585,1.085-0.995
			c0.971-0.918,1.927-1.822,2.865-2.715c0.245-0.231,0.473-0.456,0.673-0.659C38.727,26.485,39.117,27.804,39.427,29.135z
			 M36.138,21.891c0.74,0.907,1.454,1.799,1.93,2.694c0.044,0.121,0.083,0.244,0.126,0.365c-0.193,0.177-0.406,0.378-0.635,0.6
			c-0.957,0.936-1.908,1.866-2.856,2.793c-0.426,0.416-0.804,0.799-1.064,1.073c-0.119-1.66-0.31-3.296-0.607-4.917
			c0.309-0.047,0.711-0.269,1.134-0.662c0.475-0.439,0.949-0.879,1.423-1.319C35.803,22.316,35.986,22.104,36.138,21.891z
			 M23.785,1.603C26,0.951,28.572,1.03,30.726,1.847c2.73,1.036,2.184,5.161,2.17,7.277c-0.008,1.132-0.05,2.286-0.058,3.441
			c-0.297,0.287-0.627,0.605-1.009,0.972c-0.796,0.766-1.352,1.587-1.233,1.833c0.118,0.245,0.843-0.2,1.612-0.991
			c0.213-0.218,0.425-0.436,0.638-0.653c0.022,1.038,0.094,2.069,0.271,3.077c0.232,1.337,1.045,2.582,1.977,3.782
			c-0.201,0.125-0.407,0.282-0.607,0.469c-0.265,0.244-0.527,0.489-0.791,0.734c-0.404,0.376-0.739,0.829-0.957,1.259
			c-0.191-0.839-0.427-1.674-0.689-2.509c0.217-0.144,0.466-0.336,0.737-0.59c0.661-0.619,0.862-1.032,0.448-0.921
			c-0.415,0.111-1.01,0.457-1.327,0.772c-0.024,0.024-0.042,0.051-0.065,0.076c-0.207-0.607-0.432-1.215-0.684-1.822
			c-0.165-0.399-0.768-0.357-1.105-0.26c-0.037,0.011-0.074,0.022-0.11,0.032c-0.063,0.005-0.127,0.01-0.186,0.025
			c-1,0.269-2,0.537-3,0.806c0.267-1.239,0.692-2.405,1.159-3.582c0.442-1.292,1.29-2.508,1.415-3.891
			c0.029-0.33-0.314-0.475-0.603-0.467c-1.438,0.037-2.819,0.264-4.219,0.594c-0.357,0.084-0.738,0.153-1.113,0.24
			c0.313-0.323,0.628-0.646,0.934-0.96c0.663-0.684,1.198-1.258,1.193-1.282c-0.006-0.025-0.633,0.598-1.401,1.391
			c-0.29,0.3-0.572,0.59-0.856,0.883c-0.632,0.154-1.241,0.373-1.697,0.827c-0.096,0.094-0.257,0.288-0.186,0.442
			c0.07,0.152,0.138,0.307,0.207,0.461c-0.016,0.016-0.033,0.033-0.048,0.049c-0.32,0.33-0.611,0.633-0.846,0.879
			c-0.223-1.155-0.546-2.301-0.778-3.361c-0.229-1.046-0.409-2.081-0.466-3.068c0.255-0.151,0.591-0.424,0.959-0.794
			c1.413-1.423,2.828-2.843,4.243-4.265c0.777-0.783,1.077-1.379,0.669-1.308c-0.408,0.07-1.367,0.779-2.147,1.562
			c-0.922,0.926-1.843,1.852-2.763,2.777c-0.374,0.376-0.716,0.781-0.973,1.139C19.514,4.549,20.532,2.562,23.785,1.603z
			 M22.259,14.835c-0.152,0.114-0.31,0.246-0.465,0.407c-0.341,0.352-0.629,0.786-0.858,1.219c-0.005-0.715-0.094-1.444-0.23-2.172
			c0.238-0.239,0.534-0.537,0.858-0.867c0.017-0.017,0.034-0.036,0.052-0.053C21.83,13.855,22.043,14.345,22.259,14.835z
			 M20.693,18.381c0.222,0.038,0.584-0.169,1.044-0.623c0.265-0.261,0.527-0.521,0.792-0.781c0.177-0.174,0.334-0.361,0.474-0.551
			c0.499,0.988,1.073,1.93,1.825,2.749c-0.99,0.267-1.982,0.533-2.973,0.799c-0.237,0.063-0.526,0.237-0.688,0.434
			c-0.045,0.013-0.09,0.026-0.135,0.039c-0.251,0.074-0.82,0.288-0.83,0.631c-0.05,1.804-0.583,3.458-1.271,5.06
			c-1.731,1.725-3.433,3.416-5.084,5.061c-0.341,0.339-0.675,0.712-0.958,1.062c-0.062-1.913,3.583-7.097,4.232-8.072
			C18.467,22.167,20.078,20.675,20.693,18.381z"/>
	</g>
</g>
<g>
</g>
<g>
</g>
<g>
</g>
<g>
</g>
<g>
</g>
<g>
</g>
<g>
</g>
<g>
</g>
<g>
</g>
<g>
</g>
<g>
</g>
<g>
</g>
<g>
</g>
<g>
</g>
<g>
</g>
</svg>
